<?xml version="1.0" encoding="UTF-8" standalone="no"?>
<!-- Generator: Adobe Illustrator 17.1.0, SVG Export Plug-In . SVG Version: 6.00 Build 0)  -->
<!DOCTYPE svg  PUBLIC '-//W3C//DTD SVG 1.1//EN'  'http://www.w3.org/Graphics/SVG/1.1/DTD/svg11.dtd'>
<svg id="Logo" xmlns="http://www.w3.org/2000/svg" xml:space="preserve" viewBox="0 0 300 75" version="1.1" y="0px" x="0px" xmlns:xlink="http://www.w3.org/1999/xlink" enable-background="new 0 0 300 75">
<g id="Tiles">
	<g id="Brush_Tile">
		<path id="Background_3_" d="m75 72.531c0 1.363-1.106 2.469-2.469 2.469h-30.776c-1.364 0-2.469-1.106-2.469-2.469v-30.776c0-1.364 1.106-2.469 2.469-2.469h30.775c1.364 0 2.469 1.106 2.469 2.469v30.776z" fill="#2B83A5"/>
		<g id="Brush">
				<path d="m47.275 68.642c-0.192-0.11-0.342-0.278-0.474-0.453-0.214-0.288-0.383-0.618-0.437-0.976-0.069-0.449-0.012-0.912 0.14-1.339 0.257-0.745 0.735-1.388 1.249-1.976 0.237-0.256 0.48-0.507 0.733-0.746 0.85-0.767 1.731-1.499 2.598-2.247 0.555-0.458 1.089-0.941 1.641-1.402 0.242-0.206 0.505-0.409 0.651-0.7 0.144-0.292 0.202-0.633 0.129-0.952-0.086-0.392-0.304-0.743-0.571-1.037-0.238-0.267-0.53-0.477-0.784-0.727-0.264-0.258-0.499-0.553-0.665-0.884-0.119-0.236-0.174-0.509-0.131-0.772 0.041-0.229 0.21-0.401 0.345-0.581 0.307-0.378 0.593-0.771 0.912-1.139 1.56 1.294 3.108 2.602 4.66 3.905 1.331 1.106 2.65 2.225 3.977 3.334-0.394 0.404-0.769 0.826-1.144 1.246-0.144 0.156-0.31 0.314-0.526 0.359-0.317 0.065-0.645-0.015-0.939-0.136-0.441-0.191-0.841-0.468-1.206-0.779-0.169-0.143-0.337-0.292-0.541-0.384-0.288-0.133-0.628-0.146-0.924-0.03-0.389 0.157-0.716 0.453-0.917 0.821-0.809 1.454-1.623 2.907-2.434 4.36-0.614 0.959-1.3 1.891-2.186 2.618-0.468 0.372-0.992 0.697-1.582 0.828-0.528 0.125-1.104 0.06-1.574-0.211zm1.161-1.805c0.257 0.231 0.668 0.238 0.944 0.034 0.349-0.217 0.441-0.735 0.204-1.066-0.211-0.32-0.681-0.446-1.016-0.25-0.239 0.127-0.399 0.384-0.411 0.654-0.019 0.241 0.102 0.473 0.279 0.628zm11.246-6.291c0.052-0.044 0.104-0.088 0.157-0.133-0.123-0.129-0.25-0.254-0.388-0.368-1.014-0.826-2.01-1.675-3.022-2.504-1.013-0.849-2.034-1.688-3.048-2.536-0.247-0.203-0.499-0.401-0.738-0.616-0.111-0.096-0.219-0.201-0.354-0.262-0.06 0.036-0.112 0.085-0.165 0.131 2.515 2.1 5.038 4.192 7.558 6.288z" fill="#fff"/>
			<path d="m55.342 53.68c-0.689-0.583-1.4-1.14-2.083-1.73 1.29-1.854 2.564-3.72 3.854-5.575 0.231-0.335 0.454-0.676 0.696-1.004 0.221 0.171 0.444 0.34 0.651 0.528 0.064 0.062 0.133 0.124 0.169 0.207-0.044 0.188-0.139 0.358-0.212 0.534-0.57 1.336-1.135 2.674-1.709 4.008 0.14-0.243 0.264-0.494 0.384-0.748 0.471-0.95 0.954-1.896 1.425-2.846 0.124-0.253 0.245-0.509 0.39-0.752 0.378 0.274 0.723 0.59 1.075 0.896-0.618 0.749-1.27 1.469-1.886 2.22 0.802-0.595 1.545-1.265 2.358-1.844 0.405 0.369 0.839 0.705 1.256 1.061-1.01 0.855-2.026 1.701-3.046 2.545 0.482-0.238 0.928-0.539 1.393-0.807 0.725-0.417 1.438-0.854 2.169-1.26-0.124 0.312-0.278 0.61-0.422 0.912-0.34 0.697-0.666 1.4-1.011 2.094 0.95-0.617 1.903-1.231 2.847-1.859-0.783 1.436-1.589 2.86-2.374 4.295 1.088-1.18 2.18-2.358 3.279-3.528 0.38 0.315 0.761 0.629 1.129 0.959-0.912 1.171-1.819 2.346-2.726 3.521 1.224-0.91 2.422-1.854 3.656-2.749 0.452 0.384 0.924 0.747 1.349 1.162-0.644 0.619-1.353 1.166-2.017 1.762-1.106 0.97-2.231 1.918-3.336 2.888-0.206 0.187-0.421 0.364-0.643 0.532-0.959-0.762-1.89-1.56-2.844-2.328-1.257-1.032-2.508-2.07-3.771-3.094z" fill="#fff"/>
		</g>
	</g>
	<g id="Heating_Tile">
		<path id="Background_2_" d="m35.714 72.531c0 1.364-1.106 2.469-2.469 2.469h-30.776c-1.363 0-2.469-1.106-2.469-2.469v-30.776c0-1.364 1.106-2.469 2.469-2.469h30.775c1.364 0 2.469 1.106 2.469 2.469v30.776z" fill="#2B83A5"/>
		<g id="Heating" fill="#fff">
				<path d="m25.751 59.003c-2.452 0-4.44 1.988-4.44 4.44s1.988 4.44 4.44 4.44c2.452 0 4.44-1.988 4.44-4.44s-1.988-4.44-4.44-4.44zm0.502 7.728c-1.833 0.6-3.552-1.739-2.742-3.381 0.414 0.38 0.637 0.391 0.958 0.431-0.787-1.549 1.169-2.279 1.023-3.724 0.845 0.554 1.39 1.424 1.198 2.468 0.341-0.209 0.619-0.398 0.767-0.874 1.241 1.656 0.975 4.403-1.204 5.08z"/>
				<path d="m26.127 64.664c0.072-0.392-0.132-0.718-0.449-0.926 0.055 0.542-0.679 0.815-0.384 1.396-0.12-0.015-0.204-0.019-0.359-0.162-0.304 0.616 0.341 1.493 1.028 1.268 0.817-0.254 0.917-1.284 0.451-1.904-0.055 0.178-0.159 0.249-0.287 0.328z"/>
			<path d="m20.265 63.443c0-0.834 0.193-1.623 0.527-2.332h-1.59v-8.778h1.974v8.088c0.656-0.991 1.626-1.753 2.766-2.152v-5.936h1.974v5.632c1.016 0.031 1.961 0.337 2.766 0.849v-6.481h0.692v-0.746h0.739v-1.491h-0.739v-0.746h-0.692v-0.782c0-0.46-0.429-1.428-0.981-1.554 0.003-0.244-0.329-0.612-0.402-0.612s-0.402 0.389-0.402 0.612c-0.551 0.126-0.981 1.093-0.981 1.554v0.782h-1.974v-0.782c0-0.46-0.429-1.428-0.981-1.554 0.003-0.244-0.329-0.612-0.402-0.612s-0.402 0.389-0.402 0.612c-0.551 0.126-0.981 1.093-0.981 1.554v0.782h-1.974v-0.782c0-0.46-0.429-1.428-0.981-1.554 0.003-0.244-0.329-0.612-0.402-0.612s-0.402 0.389-0.402 0.612c-0.551 0.126-0.981 1.093-0.981 1.554v0.782h-1.974v-0.782c0-0.46-0.429-1.428-0.981-1.554 0.003-0.244-0.329-0.612-0.402-0.612s-0.402 0.389-0.402 0.612c-0.551 0.126-0.981 1.093-0.981 1.554v0.782h-1.976v-0.782c0-0.46-0.429-1.428-0.981-1.554 0.003-0.244-0.329-0.612-0.402-0.612s-0.402 0.389-0.402 0.612c-0.551 0.126-0.981 1.093-0.981 1.554v0.782h-0.692v0.746h-0.739v1.491h0.739v0.746h0.692v8.778h-0.692v0.746h-0.739v1.491h0.739v0.746h0.692v0.782c0 0.46 0.429 1.428 0.981 1.554-0.003 0.244 0.329 0.612 0.402 0.612s0.402-0.389 0.402-0.612c0.551-0.126 0.981-1.093 0.981-1.554v-0.782h1.974v0.782c0 0.46 0.429 1.428 0.981 1.554-0.003 0.244 0.329 0.612 0.402 0.612s0.402-0.389 0.402-0.612c0.551-0.126 0.981-1.093 0.981-1.554v-0.782h1.974v0.782c0 0.46 0.429 1.428 0.981 1.554-0.003 0.244 0.329 0.612 0.402 0.612s0.402-0.389 0.402-0.612c0.551-0.126 0.981-1.093 0.981-1.554v-0.782h1.105c-0.023-0.214-0.04-0.431-0.04-0.651zm-8.57-2.332h-1.975v-8.778h1.974v8.778zm4.74 0h-1.974v-8.778h1.974v8.778z"/>
		</g>
	</g>
	<g id="Hammer_Tile">
		<path id="Background_1_" d="m75 33.245c0 1.364-1.106 2.469-2.469 2.469h-30.776c-1.364 0-2.469-1.106-2.469-2.469v-30.776c0-1.363 1.105-2.469 2.469-2.469h30.775c1.364 0 2.47 1.106 2.47 2.469v30.776z" fill="#2B83A5"/>
		<path id="Hammer" d="m51.499 6.881c0.957-0.739 2.089-1.267 3.289-1.451 0.872-0.136 1.755-0.057 2.628 0.01-1.439 0.83-2.974 1.617-4.038 2.933-0.603 0.85-0.82 1.893-1.113 2.875 0.939 1.045 1.941 2.032 2.927 3.032 0.636 0.65 1.411 1.13 2.164 1.63 0.885 0.597 1.595 1.401 2.36 2.138 2.828 2.638 5.607 5.332 8.431 7.976 0.563 0.52 1.138 1.034 1.644 1.613v0.463c-0.472 0.711-1.028 1.379-1.706 1.903-0.249 0.166-0.52 0.379-0.838 0.354-0.553-0.213-0.962-0.666-1.368-1.079-2.717-2.947-5.512-5.82-8.247-8.749-0.704-0.737-1.478-1.411-2.083-2.235-0.35-0.47-0.64-0.98-0.98-1.455-0.642-0.913-1.52-1.619-2.281-2.425-0.453-0.455-0.866-0.957-1.397-1.32-0.292-0.211-0.666-0.083-0.978 0.004-0.628 0.208-1.334 0.488-1.607 1.146-0.377 0.743-0.617 1.816-1.591 1.964-0.879-0.565-1.573-1.379-2.221-2.19v-0.318c0.646-0.755 1.656-0.968 2.451-1.502 0.413-0.599 0.579-1.338 1.028-1.917 0.379-0.476 0.844-0.875 1.279-1.3 0.743-0.705 1.432-1.472 2.247-2.1z" fill="#fff"/>
	</g>
	<g id="Tap_Tile">
		<path id="Background" d="m35.714 33.245c0 1.364-1.106 2.469-2.469 2.469h-30.776c-1.363 0-2.469-1.105-2.469-2.469v-30.776c0-1.363 1.106-2.469 2.469-2.469h30.775c1.364 0 2.469 1.106 2.469 2.469v30.776z" fill="#2B83A5"/>
		<g id="Tap" fill="#fff">
			<path d="m12.73 6.031c0.104-0.252 0.317-0.519 0.613-0.517 0.804 0.131 1.612 0.254 2.426 0.305 0.085-0.073 0.166-0.151 0.266-0.202 0.129-0.012 0.229 0.081 0.333 0.142 0.372-0.155 0.767-0.276 1.174-0.269 0.413-0.018 0.821 0.089 1.198 0.252 0.116-0.055 0.231-0.15 0.368-0.115 0.088 0.051 0.158 0.124 0.232 0.193 0.806-0.045 1.605-0.163 2.4-0.298 0.231-0.048 0.455 0.113 0.575 0.299 0.237 0.373 0.291 0.834 0.26 1.267-0.034 0.317-0.115 0.643-0.313 0.899-0.12 0.158-0.323 0.265-0.523 0.225-0.795-0.127-1.593-0.267-2.4-0.292-0.09 0.072-0.17 0.183-0.294 0.194-0.133-0.033-0.256-0.101-0.392-0.12-0.018 0.955-0.003 1.91-0.006 2.865 0.211 0.004 0.423-0.009 0.634 0.011 0.131 0.013 0.234 0.113 0.296 0.224-0.013 0.102-0.053 0.198-0.086 0.296 0.395-0.004 0.791-0.014 1.186 0.001 0.167 0.005 0.243 0.182 0.223 0.328-0.016 0.191 0.057 0.424-0.085 0.581-0.111 0.049-0.235 0.063-0.353 0.09 0.014 0.468-0.021 0.938 0.039 1.403 0.045 0.49 0.175 0.988 0.469 1.391 0.252 0.354 0.665 0.575 1.091 0.636 0.288 0.029 0.578 0.014 0.867 0.018 1.198-0.004 2.396 0.006 3.595-0.004-0.006-0.612-0.001-1.223-0.003-1.835 0.381 0 0.762-0.001 1.144 0.003 0.006-0.725 0.001-1.45 0.003-2.175 0.688-0.006 1.377 0 2.066-0.003 0.004 4.048 0.003 8.097 0.001 12.146-0.69-0.001-1.379 0-2.069-0.001 0.005-0.724 0.003-1.448 0.001-2.172-0.382 0.001-0.764-0.001-1.146 0 0.001-0.565 0.001-1.13-0.001-1.695-1.218 0.001-2.435-0.012-3.654-0.016-0.615-0.006-1.228 0.072-1.828 0.207-0.519 0.12-1.014 0.316-1.513 0.495-0.596 0.214-1.222 0.363-1.858 0.361-0.827 0.013-1.635-0.236-2.37-0.601-0.675-0.312-1.323-0.732-2.075-0.822-0.38-0.031-0.783-0.039-1.132 0.137-0.597 0.294-1.032 0.833-1.357 1.401-0.454 0.795-0.685 1.691-0.867 2.582-1.245-0.24-2.493-0.459-3.738-0.696 0.18-0.869 0.421-1.728 0.741-2.556 0.556-1.401 1.441-2.699 2.665-3.598 0.982-0.724 2.158-1.178 3.37-1.309 0.425-0.05 0.861-0.172 1.194-0.453 0.362-0.304 0.532-0.787 0.543-1.251 0.01-0.532-0.003-1.065 0.006-1.598-0.134-0.043-0.329-0.028-0.385-0.187-0.03-0.195-0.021-0.395-0.009-0.591 0.001-0.138 0.15-0.232 0.279-0.22 0.385-0.004 0.77-0.006 1.155 0.006-0.039-0.076-0.08-0.153-0.11-0.234 0.028-0.143 0.143-0.27 0.292-0.286 0.21-0.023 0.423-0.009 0.635-0.011 0-0.951 0.002-1.903-0.001-2.854-0.034-0.006-0.103-0.016-0.137-0.022-0.086 0.048-0.171 0.102-0.267 0.13-0.141 0.009-0.232-0.117-0.333-0.195-0.794 0.034-1.578 0.167-2.361 0.295-0.304 0.051-0.545-0.211-0.656-0.465-0.229-0.541-0.23-1.174-0.018-1.72z"/>
			<path d="m7.758 24.594c0.115 0.476 0.236 0.958 0.475 1.39 0.192 0.357 0.45 0.672 0.708 0.983 0.258 0.309 0.475 0.666 0.552 1.065 0.033 0.213 0.028 0.431 0.007 0.645-0.076 0.508-0.388 0.965-0.804 1.258-0.479 0.334-1.137 0.383-1.661 0.13-0.767-0.358-1.213-1.288-1.006-2.11 0.093-0.362 0.284-0.693 0.524-0.977 0.281-0.33 0.55-0.675 0.755-1.059 0.219-0.415 0.319-0.878 0.45-1.325z"/>
		</g>
	</g>
</g>
<g id="ALPA" fill="#1F5B7E">
	<path d="m121.21 32.635h-5.38l-2.659-7.523h-11.625l-2.556 7.523h-5.359l11.075-29.556h5.524l10.99 29.556zm-9.34-11.521l-4.101-11.79c-0.124-0.385-0.255-1.003-0.392-1.855h-0.083c-0.124 0.783-0.261 1.402-0.412 1.855l-4.06 11.79h9.04z"/>
	<path d="m141.64 32.635h-16.37v-29.556h4.906v25.414h11.46v4.142z"/>
	<path d="m150.79 21.918v10.718h-4.885v-29.557h8.966c3.394 0 6.025 0.79 7.894 2.37s2.803 3.806 2.803 6.678-0.976 5.222-2.927 7.049c-1.952 1.828-4.59 2.741-7.915 2.741h-3.93zm0-14.799v10.8h3.174c2.102 0 3.703-0.488 4.802-1.463s1.649-2.35 1.649-4.122c0-3.476-2.02-5.215-6.06-5.215h-3.56z"/>
	<path d="m191.95 32.635h-5.38l-2.659-7.523h-11.625l-2.556 7.523h-5.359l11.068-29.557h5.524l11 29.557zm-9.34-11.521l-4.101-11.79c-0.124-0.385-0.255-1.003-0.392-1.855h-0.083c-0.124 0.783-0.261 1.402-0.412 1.855l-4.06 11.79h9.04z"/>
</g>
<g id="Renovation" fill="#1F5B7E">
	<path d="m116.48 71.617h-5.43l-4.473-7.501c-0.404-0.69-0.798-1.279-1.182-1.767s-0.775-0.889-1.172-1.201-0.83-0.54-1.299-0.684-0.996-0.215-1.582-0.215h-1.875v11.368h-4.629v-28.01h9.22c1.315 0 2.526 0.156 3.633 0.469 1.107 0.312 2.07 0.784 2.891 1.416s1.462 1.42 1.924 2.363c0.462 0.944 0.693 2.048 0.693 3.311 0 0.99-0.147 1.898-0.44 2.725s-0.71 1.562-1.25 2.207-1.191 1.195-1.953 1.651-1.618 0.807-2.569 1.055v0.078c0.508 0.287 0.951 0.603 1.329 0.948s0.736 0.7 1.074 1.065c0.339 0.365 0.674 0.778 1.006 1.24 0.332 0.463 0.7 1 1.103 1.612l4.98 7.87zm-17.019-24.241v9.102h3.868c0.716 0 1.377-0.11 1.982-0.332 0.605-0.221 1.13-0.54 1.573-0.957 0.442-0.417 0.787-0.924 1.035-1.524 0.247-0.599 0.371-1.27 0.371-2.012 0-1.341-0.423-2.389-1.27-3.145-0.846-0.755-2.064-1.133-3.652-1.133h-3.909z"/>
	<path d="m135.46 71.617h-15.724v-28.01h15.099v3.946h-10.45v7.93h9.63v3.926h-9.63v8.282h11.075v3.926z"/>
	<path d="m164.19 71.617h-5.078l-13.38-20.588c-0.339-0.521-0.619-1.061-0.84-1.621h-0.117c0.104 0.599 0.156 1.882 0.156 3.848v18.361h-4.493v-28.01h5.411l12.931 20.1c0.547 0.833 0.898 1.406 1.055 1.719h0.078c-0.13-0.742-0.195-1.999-0.195-3.77v-18.049h4.473v28.01z"/>
	<path d="m182.67 71.617c-4.037 0-7.27-1.309-9.698-3.926-2.429-2.618-3.643-6.023-3.643-10.216 0-4.505 1.237-8.1 3.711-10.782s5.834-4.024 10.079-4.024c3.933 0 7.1 1.303 9.503 3.907 2.403 2.605 3.604 6.01 3.604 10.216 0 4.571-1.23 8.184-3.692 10.841-2.45 2.655-5.74 3.984-9.86 3.984zm0.22-24.866c-2.565 0-4.652 0.957-6.26 2.871s-2.412 4.434-2.412 7.559c0 3.112 0.781 5.619 2.344 7.52 1.562 1.902 3.607 2.852 6.133 2.852 2.682 0 4.798-0.905 6.348-2.715 1.549-1.81 2.324-4.343 2.324-7.598 0-3.347-0.752-5.931-2.256-7.755-1.5-1.822-3.57-2.734-6.21-2.734z"/>
	<path d="m223.32 43.607l-10.059 28.01h-5.196l-9.884-28.01h5.079l6.915 21.252c0.221 0.677 0.391 1.465 0.508 2.364h0.078c0.091-0.742 0.28-1.543 0.567-2.403l7.071-21.213h4.91z"/>
	<path d="m247.85 71.617h-5.098l-2.52-7.13h-11.016l-2.422 7.13h-5.079l10.489-28.01h5.235l10.41 28.01zm-8.85-10.919l-3.887-11.173c-0.117-0.364-0.241-0.95-0.371-1.758h-0.078c-0.117 0.742-0.247 1.328-0.391 1.758l-3.848 11.173h8.58z"/>
	<path d="m266.84 47.552h-8.048v24.065h-4.649v-24.065h-8.028v-3.946h20.725v3.946z"/>
	<path d="m275.71 71.617h-4.785v-28.01h4.785v28.01z"/>
	<path d="m298.33 71.617h-15.724v-28.01h15.099v3.946h-10.45v7.93h9.63v3.926h-9.63v8.282h11.075v3.926z"/>
</g>
</svg>
